<svg xmlns="http://www.w3.org/2000/svg" width="31" height="26" viewBox="0 0 31 26"><g><g><path fill="#4e26fd" d="M14.854 0l1.916 3.677 3.896.792-2.712 3.064.492 4.166-3.592-1.782-3.592 1.782.492-4.166L9.042 4.47l3.896-.792L14.854 0"/></g><g><path fill="#4e26fd" d="M5.812 14.3l1.916 3.677 3.896.792-2.712 3.064L9.404 26l-3.592-1.782-3.591 1.782.492-4.166L0 18.77l3.896-.792L5.812 14.3"/></g><g><path fill="#4e26fd" d="M25.187 14.3l1.916 3.677 3.896.792-2.712 3.064L28.78 26l-3.592-1.782-3.592 1.782.493-4.166-2.712-3.064 3.896-.792 1.915-3.677"/></g></g></svg>