<svg xmlns="http://www.w3.org/2000/svg" width="164" height="53" viewBox="0 0 164 53"><g><g><g><text fill="#fff" style="line-height:72px" dominant-baseline="text-before-edge" font-family="'Bebas','Bebas'" font-size="191.71" font-style="none" font-weight="400" transform="translate(50 11)"><tspan style="font-kerning:normal">Creative</tspan></text></g></g><g><g><text fill="#fff" style="line-height:72px" dominant-baseline="text-before-edge" font-family="'BaronNeue','BaronNeue'" font-size="120" font-style="none" font-weight="400" transform="translate(54 43)"><tspan letter-spacing="12" style="font-kerning:normal">Tagline here</tspan></text></g></g><g><path fill="#fff" d="M23.053.81c5.267 1.692 8.388 6.689 6.971 11.16L19.536 45.08c-1.416 4.47-6.834 6.724-12.101 5.031C2.168 48.418-.953 43.421.464 38.95L10.952 5.842C12.37 1.37 17.786-.883 23.052.81z"/></g><g><path fill="#434343" d="M33.81 15.244c3.423 1.1 5.452 4.347 4.531 7.253l-6.816 21.517c-.92 2.906-4.442 4.37-7.865 3.27-3.422-1.1-5.45-4.348-4.53-7.253l6.816-21.517c.92-2.906 4.442-4.37 7.864-3.27z"/></g></g></svg>